<?xml version="1.0" encoding="UTF-8"?>
<svg id="Layer_1" data-name="Layer 1" xmlns="http://www.w3.org/2000/svg" xmlns:xlink="http://www.w3.org/1999/xlink" version="1.1" viewBox="0 0 2160 2160">
  <defs>
    <style>
      .cls-1 {
        fill: url(#linear-gradient);
        stroke-width: 0px;
      }
    </style>
    <linearGradient id="linear-gradient" x1="541.6" y1="173" x2="1616.5" y2="2034.8" gradientTransform="translate(0 2160.7) scale(1 -1)" gradientUnits="userSpaceOnUse">
      <stop offset="0" stop-color="#ffdc00"/>
      <stop offset=".3" stop-color="#e58e2f"/>
      <stop offset=".7" stop-color="#db2d72"/>
      <stop offset="1" stop-color="#f0f"/>
    </linearGradient>
  </defs>
  <g id="Layer_2" data-name="Layer 2">
    <g id="logo">
      <path class="cls-1" d="M509.4,1957.7l-145.6-252.1c-4.6-9.3-4.6-20.2,0-29.5l161.6-279.9c5.8-8.8,15.3-14.3,25.8-14.9h323.2c10.5.6,20.1,6.2,25.8,14.9l161.6,279.9c4.6,9.4,4.6,20.4,0,29.8l-161.6,279.9c-5.8,8.6-15.1,14-25.4,14.9h-290.5c-30.3-1.9-58-17.8-74.9-42.9ZM1559,1381.8l-322-557.5c-7.9-11.9-21-19.5-35.3-20.4h-644c-14.3.9-27.4,8.4-35.3,20.4l-322,557.7c-6.4,12.8-6.4,27.9,0,40.8l94.4,163.6,165.1-285.8c9.1-13.9,24.2-22.7,40.8-23.6h424.2c16.6.9,31.8,9.7,40.8,23.6l212.2,367.5c7.5,14.8,7.5,32.4,0,47.2l-165.1,285.8h188.6c14.3-.9,27.4-8.5,35.3-20.4l322-557.7c6.6-12.9,6.7-28.2.2-41.2ZM2143.3,1012.8l-493.9-855.8c-17-25.9-45.3-42.3-76.2-44h-988.2c-31,1.7-59.2,18.1-76.2,44L14.6,1012.8c-14,27.7-14,60.3,0,88l113.2,196.1,328.3-568.8c11.2-17.2,29.9-28,50.4-29.1h745.6c20.5,1.1,39.2,11.9,50.4,29.1l372.9,645.8c9.3,18.3,9.3,39.9,0,58.2l-328.3,568.5h225.9c31-1.7,59.2-18.1,76.2-44l494.1-855.8c14-27.7,14-60.3,0-88h-.2Z"/>
    </g>
  </g>
</svg>