<?xml version="1.0" encoding="utf-8"?>
<!-- Generator: Adobe Illustrator 27.2.0, SVG Export Plug-In . SVG Version: 6.00 Build 0)  -->
<svg version="1.1" id="Layer_1" xmlns="http://www.w3.org/2000/svg" xmlns:xlink="http://www.w3.org/1999/xlink" x="0px" y="0px"
	 viewBox="0 0 384 512" style="enable-background:new 0 0 384 512;" xml:space="preserve">
<style type="text/css">
	.st0{fill:#FFFFFF;}
</style>
<path class="st0" d="M56.3,66.3c-4.9-3-11.1-3.1-16.2-0.3s-8.2,8.2-8.2,14v352c0,5.8,3.1,11.1,8.2,14s11.2,2.7,16.2-0.3l288-176
	c4.8-2.9,7.7-8.1,7.7-13.7s-2.9-10.7-7.7-13.7L56.3,66.3L56.3,66.3z M24.5,38.1C39.7,29.6,58.2,30,73,39l288,176
	c14.3,8.7,23,24.2,23,41s-8.7,32.2-23,41L73,473c-14.8,9.1-33.4,9.4-48.5,0.9S0,449.4,0,432V80C0,62.6,9.4,46.6,24.5,38.1z"/>
</svg>
