<?xml version="1.0" encoding="utf-8"?>
<!-- Generator: Adobe Illustrator 27.2.0, SVG Export Plug-In . SVG Version: 6.00 Build 0)  -->
<svg version="1.1" id="Layer_1" xmlns="http://www.w3.org/2000/svg" xmlns:xlink="http://www.w3.org/1999/xlink" x="0px" y="0px"
	 viewBox="0 0 1200 1200" style="enable-background:new 0 0 1200 1200;" xml:space="preserve">
<style type="text/css">
	.st0{fill:url(#PulseChain-Logo-Shape_00000177456708899156092720000006255515706638848669_);}
	.st1{fill:#221446;}
	.st2{fill:url(#SVGID_1_);}
	.st3{fill:url(#SVGID_00000057120056975555510390000004565955749704038569_);}
	.st4{fill:url(#SVGID_00000068662999747098286900000011809237240332516484_);}
	.st5{fill:url(#SVGID_00000134245970098548162720000007058117607677402510_);}
	.st6{fill:url(#SVGID_00000145051448006654923410000004510626622252809116_);}
</style>
<g>
	<g id="Page-1_00000010276686262679917760000016947796673806306437_">
		<g id="Artboard_00000051347503196552873480000004974172221998816167_" transform="translate(-182.000000, -149.000000)">
			<g id="LogoVector_00000076602730687603799490000010568334427521114534_" transform="translate(182.000000, 149.000000)">
				
					<linearGradient id="PulseChain-Logo-Shape_00000132769961182284746410000005198648561764287930_" gradientUnits="userSpaceOnUse" x1="568.7679" y1="583.1895" x2="567.7758" y2="584.7957" gradientTransform="matrix(432.0988 0 0 400.6515 -244776.6406 -233216.9688)">
					<stop  offset="0" style="stop-color:#00EAFF"/>
					<stop  offset="0.2525" style="stop-color:#0080FF"/>
					<stop  offset="0.4974" style="stop-color:#8000FF"/>
					<stop  offset="0.7499" style="stop-color:#E619E6"/>
					<stop  offset="0.9991" style="stop-color:#FF0000"/>
				</linearGradient>
				
					<path id="PulseChain-Logo-Shape_00000017509107662124860610000013185368475670612884_" style="fill:url(#PulseChain-Logo-Shape_00000132769961182284746410000005198648561764287930_);" d="
					M1180.8,803.9c0,3.9-0.9,7.5-2.6,10.7l-174.9,303c-7.4,12.9-21.1,20.8-35.9,20.8H578.7c-14.8,0-28.6-7.9-35.9-20.8l-174.9-303
					c-1.7-3.2-2.6-6.8-2.6-10.7c0-12.5,10.2-22.7,22.7-22.7H580l48.6,82.6l0.3,0.5c6.5,10.4,20.1,13.8,30.8,7.5l0,0l0.5-0.4
					c4.9-3.1,8.4-7.9,9.9-13.6l0,0l62-239.5l53.2,385.7l0.1,0.5c2,12.2,13.3,20.6,25.5,18.9l0,0l0.5-0.1c8.9-1.4,16.1-8,18.4-16.8
					l0,0l74.7-288.8l30.7,52.1l0.3,0.5c4.2,6.7,11.4,10.6,19.2,10.6l0,0h203.5l0,0C1170.7,781.2,1180.8,791.4,1180.8,803.9z
					 M967.4,382.2c14.8,0,28.6,7.9,35.9,20.8l174.9,303c1.7,3.2,2.6,6.8,2.6,10.7c0,12.5-10.2,22.7-22.7,22.7H965.7l-48.6-82.6
					l-0.4-0.5c-3.1-4.9-7.9-8.4-13.6-9.9l0,0l-0.5-0.1c-12-2.8-24,4.4-27.1,16.4l0,0l-62,239.5l-53.2-385.6l-0.1-0.5
					c-1.4-8.9-8-16.1-16.8-18.4c-12.2-3.1-24.6,4.2-27.7,16.3l0,0l-74.7,288.8l-30.7-52.1l-0.3-0.5c-4.2-6.7-11.4-10.6-19.2-10.6
					l0,0H388l0,0c-12.5,0-22.7-10.2-22.7-22.7c0-3.8,0.9-7.4,2.5-10.6l175-303c7.4-12.9,21.1-20.8,35.9-20.8h388.7V382.2z"/>
			</g>
		</g>
	</g>
</g>
<polygon class="st1" points="424.4,74.6 60.3,288.2 60.3,709.4 425.2,921.8 784.9,707 784.9,283.4 "/>
<g id="Layer_1-2">
	<g>
		<g>
			
				<linearGradient id="SVGID_1_" gradientUnits="userSpaceOnUse" x1="31.1543" y1="-105.911" x2="817.5417" y2="-105.911" gradientTransform="matrix(1 0 0 1 0 604.7244)">
				<stop  offset="0" style="stop-color:#797979"/>
				<stop  offset="2.000000e-02" style="stop-color:#919191"/>
				<stop  offset="7.000000e-02" style="stop-color:#B8B8B8"/>
				<stop  offset="0.11" style="stop-color:#D7D7D7"/>
				<stop  offset="0.15" style="stop-color:#EDEDED"/>
				<stop  offset="0.19" style="stop-color:#FAFAFA"/>
				<stop  offset="0.22" style="stop-color:#FFFFFF"/>
				<stop  offset="0.28" style="stop-color:#F9F9F9"/>
				<stop  offset="0.34" style="stop-color:#E9E9E9"/>
				<stop  offset="0.42" style="stop-color:#CFCFCF"/>
				<stop  offset="0.45" style="stop-color:#C1C1C0"/>
				<stop  offset="0.57" style="stop-color:#A1A1A1"/>
				<stop  offset="0.76" style="stop-color:#E2E2E2"/>
				<stop  offset="0.84" style="stop-color:#FFFFFF"/>
				<stop  offset="0.86" style="stop-color:#F9F9F9"/>
				<stop  offset="0.9" style="stop-color:#E9E9E9"/>
				<stop  offset="0.93" style="stop-color:#CECECE"/>
				<stop  offset="0.97" style="stop-color:#AAAAAA"/>
				<stop  offset="1" style="stop-color:#8F8F8F"/>
			</linearGradient>
			<path class="st2" d="M425,45.5L32.3,272.1v110.3l-1.2-0.5v257l1.2,0.6v85.8L425,952.1l392.6-226.7V272.1L425,45.5z M758.1,691.1
				L425,883.4L91.8,691.1V306.5L425,114.1l333.2,192.4V691.1z"/>
			
				<linearGradient id="SVGID_00000073723064844620512480000011785146456947548851_" gradientUnits="userSpaceOnUse" x1="121.4913" y1="154.5604" x2="728.4824" y2="154.5604" gradientTransform="matrix(1 0 0 1 0 604.7244)">
				<stop  offset="0" style="stop-color:#797979"/>
				<stop  offset="2.000000e-02" style="stop-color:#919191"/>
				<stop  offset="7.000000e-02" style="stop-color:#B8B8B8"/>
				<stop  offset="0.11" style="stop-color:#D7D7D7"/>
				<stop  offset="0.15" style="stop-color:#EDEDED"/>
				<stop  offset="0.19" style="stop-color:#FAFAFA"/>
				<stop  offset="0.22" style="stop-color:#FFFFFF"/>
				<stop  offset="0.28" style="stop-color:#F9F9F9"/>
				<stop  offset="0.34" style="stop-color:#E9E9E9"/>
				<stop  offset="0.42" style="stop-color:#CFCFCF"/>
				<stop  offset="0.45" style="stop-color:#C1C1C0"/>
				<stop  offset="0.57" style="stop-color:#A1A1A1"/>
				<stop  offset="0.76" style="stop-color:#E2E2E2"/>
				<stop  offset="0.84" style="stop-color:#FFFFFF"/>
				<stop  offset="0.86" style="stop-color:#F9F9F9"/>
				<stop  offset="0.9" style="stop-color:#E9E9E9"/>
				<stop  offset="0.93" style="stop-color:#CECECE"/>
				<stop  offset="0.97" style="stop-color:#AAAAAA"/>
				<stop  offset="1" style="stop-color:#8F8F8F"/>
			</linearGradient>
			<polygon style="fill:url(#SVGID_00000073723064844620512480000011785146456947548851_);" points="728.5,671.7 425,846.8 
				121.5,671.7 425,779.5 			"/>
			
				<linearGradient id="SVGID_00000179632574262039351790000012698472764946167210_" gradientUnits="userSpaceOnUse" x1="121.4913" y1="-366.5194" x2="728.4824" y2="-366.5194" gradientTransform="matrix(1 0 0 1 0 604.7244)">
				<stop  offset="0" style="stop-color:#797979"/>
				<stop  offset="2.000000e-02" style="stop-color:#919191"/>
				<stop  offset="7.000000e-02" style="stop-color:#B8B8B8"/>
				<stop  offset="0.11" style="stop-color:#D7D7D7"/>
				<stop  offset="0.15" style="stop-color:#EDEDED"/>
				<stop  offset="0.19" style="stop-color:#FAFAFA"/>
				<stop  offset="0.22" style="stop-color:#FFFFFF"/>
				<stop  offset="0.28" style="stop-color:#F9F9F9"/>
				<stop  offset="0.34" style="stop-color:#E9E9E9"/>
				<stop  offset="0.42" style="stop-color:#CFCFCF"/>
				<stop  offset="0.45" style="stop-color:#C1C1C0"/>
				<stop  offset="0.57" style="stop-color:#A1A1A1"/>
				<stop  offset="0.76" style="stop-color:#E2E2E2"/>
				<stop  offset="0.84" style="stop-color:#FFFFFF"/>
				<stop  offset="0.86" style="stop-color:#F9F9F9"/>
				<stop  offset="0.9" style="stop-color:#E9E9E9"/>
				<stop  offset="0.93" style="stop-color:#CECECE"/>
				<stop  offset="0.97" style="stop-color:#AAAAAA"/>
				<stop  offset="1" style="stop-color:#8F8F8F"/>
			</linearGradient>
			<polygon style="fill:url(#SVGID_00000179632574262039351790000012698472764946167210_);" points="121.5,325.8 425,150.6 
				728.5,325.8 425,218 			"/>
		</g>
		<g>
			
				<linearGradient id="SVGID_00000023267398557133468600000015187743672016736436_" gradientUnits="userSpaceOnUse" x1="121.1262" y1="-71.0994" x2="527.4598" y2="-71.0994" gradientTransform="matrix(1 0 0 1 0 604.7244)">
				<stop  offset="0" style="stop-color:#797979"/>
				<stop  offset="2.000000e-02" style="stop-color:#919191"/>
				<stop  offset="7.000000e-02" style="stop-color:#B8B8B8"/>
				<stop  offset="0.11" style="stop-color:#D7D7D7"/>
				<stop  offset="0.15" style="stop-color:#EDEDED"/>
				<stop  offset="0.19" style="stop-color:#FAFAFA"/>
				<stop  offset="0.22" style="stop-color:#FFFFFF"/>
				<stop  offset="0.29" style="stop-color:#F9F9F9"/>
				<stop  offset="0.36" style="stop-color:#E9E9E9"/>
				<stop  offset="0.45" style="stop-color:#CECECE"/>
				<stop  offset="0.55" style="stop-color:#AAAAAA"/>
				<stop  offset="0.57" style="stop-color:#A1A1A1"/>
				<stop  offset="0.74" style="stop-color:#C1C1C0"/>
				<stop  offset="0.78" style="stop-color:#DDDDDC"/>
				<stop  offset="0.84" style="stop-color:#FFFFFF"/>
				<stop  offset="0.86" style="stop-color:#F9F9F9"/>
				<stop  offset="0.9" style="stop-color:#E9E9E9"/>
				<stop  offset="0.93" style="stop-color:#CECECE"/>
				<stop  offset="0.97" style="stop-color:#AAAAAA"/>
				<stop  offset="1" style="stop-color:#8F8F8F"/>
			</linearGradient>
			<polygon style="fill:url(#SVGID_00000023267398557133468600000015187743672016736436_);" points="226,387.8 322.6,583 
				455.8,339.1 527.5,339.1 324.2,730 121.1,337.2 384.2,339.1 360.9,389.4 			"/>
			
				<linearGradient id="SVGID_00000053528998190384825360000010383995273543635345_" gradientUnits="userSpaceOnUse" x1="439.1304" y1="-70.1413" x2="727.6611" y2="-70.1413" gradientTransform="matrix(1 0 0 1 0 604.7244)">
				<stop  offset="0" style="stop-color:#797979"/>
				<stop  offset="2.000000e-02" style="stop-color:#919191"/>
				<stop  offset="7.000000e-02" style="stop-color:#B8B8B8"/>
				<stop  offset="0.11" style="stop-color:#D7D7D7"/>
				<stop  offset="0.15" style="stop-color:#EDEDED"/>
				<stop  offset="0.19" style="stop-color:#FAFAFA"/>
				<stop  offset="0.22" style="stop-color:#FFFFFF"/>
				<stop  offset="0.29" style="stop-color:#F9F9F9"/>
				<stop  offset="0.36" style="stop-color:#E9E9E9"/>
				<stop  offset="0.45" style="stop-color:#CECECE"/>
				<stop  offset="0.55" style="stop-color:#AAAAAA"/>
				<stop  offset="0.57" style="stop-color:#A1A1A1"/>
				<stop  offset="0.74" style="stop-color:#C1C1C0"/>
				<stop  offset="0.78" style="stop-color:#DDDDDC"/>
				<stop  offset="0.84" style="stop-color:#FFFFFF"/>
				<stop  offset="0.86" style="stop-color:#F9F9F9"/>
				<stop  offset="0.9" style="stop-color:#E9E9E9"/>
				<stop  offset="0.93" style="stop-color:#CECECE"/>
				<stop  offset="0.97" style="stop-color:#AAAAAA"/>
				<stop  offset="1" style="stop-color:#8F8F8F"/>
			</linearGradient>
			<polygon style="fill:url(#SVGID_00000053528998190384825360000010383995273543635345_);" points="439.1,563.7 472.9,495.5 
				521.6,581.9 652.7,339.1 727.7,339.1 527.5,730 			"/>
		</g>
	</g>
</g>
</svg>
