<?xml version="1.0" encoding="utf-8"?>
<!-- Generator: Adobe Illustrator 27.8.1, SVG Export Plug-In . SVG Version: 6.00 Build 0)  -->
<svg version="1.1" id="Layer_1" xmlns="http://www.w3.org/2000/svg" xmlns:xlink="http://www.w3.org/1999/xlink" x="0px" y="0px"
	 viewBox="0 0 783 655" style="enable-background:new 0 0 783 655;" xml:space="preserve">
<style type="text/css">
	.st0{fill-rule:evenodd;clip-rule:evenodd;fill:url(#Combined-Shape-Copy_00000093139631027520614130000012604933519466693017_);}
	.st1{fill-rule:evenodd;clip-rule:evenodd;fill:url(#Path-4-Copy-2_00000003820560885755768890000013231501652146205060_);}
</style>
<g id="Artboard">
	<g id="Group-4-Copy-4">
		
			<linearGradient id="Combined-Shape-Copy_00000142865029045493105650000006177003297246014110_" gradientUnits="userSpaceOnUse" x1="-28.4583" y1="624.3723" x2="-27.913" y2="623.2563" gradientTransform="matrix(471 0 0 -557 13630 347815.5)">
			<stop  offset="8.638821e-04" style="stop-color:#FF0000"/>
			<stop  offset="1" style="stop-color:#FF0033"/>
		</linearGradient>
		
			<path id="Combined-Shape-Copy" style="fill-rule:evenodd;clip-rule:evenodd;fill:url(#Combined-Shape-Copy_00000142865029045493105650000006177003297246014110_);" d="
			M466.6,412.3L587,622H450.6c-8.9,0-17.2-4.8-21.7-12.5l0,0l-37.9-66L466.6,412.3z M252.7,65c9,0,17.2,4.8,21.7,12.6l0,0
			l78.3,136.4L277,345.1L116,65H252.7z"/>
		
			<linearGradient id="Path-4-Copy-2_00000072977282614638602240000003752978355310371262_" gradientUnits="userSpaceOnUse" x1="-27.9706" y1="624.3545" x2="-28.484" y2="623.2838" gradientTransform="matrix(531 0 0 -655 15390 408929.5)">
			<stop  offset="0" style="stop-color:#00FF99"/>
			<stop  offset="1" style="stop-color:#00FF55"/>
		</linearGradient>
		
			<path id="Path-4-Copy-2" style="fill-rule:evenodd;clip-rule:evenodd;fill:url(#Path-4-Copy-2_00000072977282614638602240000003752978355310371262_);" d="
			M302.1,630.1L667,0l0,0H543.3c-17.9,0-34.4,9.5-43.3,25L136,655l0,0h122.8C276.6,655,293.1,645.5,302.1,630.1z"/>
	</g>
</g>
</svg>
