<?xml version="1.0" encoding="utf-8"?>
<!-- Generator: Adobe Illustrator 24.0.1, SVG Export Plug-In . SVG Version: 6.00 Build 0)  -->
<svg version="1.1" id="Layer_1" xmlns="http://www.w3.org/2000/svg" xmlns:xlink="http://www.w3.org/1999/xlink" x="0px" y="0px" width="32.000000pt" height="32.000000pt"
	 viewBox="0 0 500 500" style="enable-background:new 0 0 500 500;" xml:space="preserve">
<style type="text/css">
	.st0{fill:#3652CC;}
	.st1{fill:#FFFFFF;}
	.st2{fill:#D3D3D3;}
</style>
<circle class="st0" cx="250" cy="241.16" r="205.46"/>
<path class="st1" d="M246.05,98.51l-49.11,49.11c-1.47,1.47-1.47,3.86,0,5.33l51.77,51.77l51.77-51.77c1.47-1.47,1.47-3.86,0-5.33
	l-49.11-49.11C249.9,97.04,247.52,97.04,246.05,98.51z"/>
<path class="st1" d="M276.59,276.07l-27.95,27.95L140.49,195.88c-1.47-1.47-1.47-3.86,0-5.33l25.29-25.29
	c1.47-1.47,3.86-1.47,5.33,0l105.48,105.48C278.06,272.21,278.06,274.6,276.59,276.07z"/>
<path class="st1" d="M128.71,222.23l22.47,22.47l-30.6,30.6l-22.47-22.47c-4.43-4.4-4.43-11.55,0-15.94l14.66-14.66
	C117.17,217.8,124.32,217.8,128.71,222.23z"/>
<path class="st1" d="M271.08,380.51l-22.65,22.65l-94.23-94.23l30.6-30.63l86.27,86.27C275.48,368.99,275.48,376.11,271.08,380.51z"
	/>
<polygon class="st2" points="248.63,242.78 248.62,304.02 359.43,193.21 328.81,162.59 "/>
<path class="st2" d="M312.51,277.75l30.63,30.63l-88.94,88.91c-2.18,2.18-5.86,0.63-5.86-2.42l0.03-51.57c0-0.9,0.36-1.77,1.02-2.42
	L312.51,277.75z"/>
<path class="st2" d="M404.2,247.3l-27.43,27.46l-30.63-30.63l27.46-27.46c1.32-1.35,3.5-1.35,4.85,0l25.76,25.76
	C405.55,243.77,405.55,245.95,404.2,247.3z"/>
<path class="st2" d="M249.35,204.08l47.26-47.26c3.61-3.61,3.61-9.47,0-13.08l-42.97-42.97c-1.82-1.82-4.92-0.53-4.92,2.04v101.01
	C248.71,204.14,249.11,204.31,249.35,204.08z"/>
</svg>
