<?xml version="1.0" encoding="utf-8"?>
<!-- Generator: Adobe Illustrator 27.2.0, SVG Export Plug-In . SVG Version: 6.00 Build 0)  -->
<svg version="1.1" id="Layer_1" xmlns="http://www.w3.org/2000/svg" xmlns:xlink="http://www.w3.org/1999/xlink" x="0px" y="0px"
	 viewBox="0 0 1200 1200" style="enable-background:new 0 0 1200 1200;" xml:space="preserve">
<style type="text/css">
	.st0{fill:#42494C;}
</style>
<g id="Page-1">
	<g id="Artboard" transform="translate(-182.000000, -149.000000)">
		<g id="LogoVector" transform="translate(182.000000, 149.000000)">
			<path id="PulseChain-Logo-Shape" class="st0" d="M1059.8,649c0,4.4-1,8.5-2.9,12.1l-197.2,341.6c-8.4,14.5-23.8,23.4-40.5,23.4
				H380.9c-16.7,0-32.2-8.9-40.5-23.4L143.2,661.1c-1.9-3.6-2.9-7.7-2.9-12.1c0-14.1,11.5-25.6,25.6-25.6h216.4l54.8,93.1l0.3,0.6
				c7.3,11.7,22.7,15.6,34.7,8.5l0,0l0.6-0.4c5.5-3.5,9.5-8.9,11.2-15.3l0,0l69.9-270.1l60,434.9l0.1,0.6
				c2.2,13.7,15,23.2,28.8,21.3l0,0l0.6-0.1c10-1.6,18.1-9,20.7-18.9l0,0L748.2,552l34.6,58.7l0.3,0.6c4.7,7.5,12.9,12,21.7,12l0,0
				h229.5l0,0C1048.4,623.4,1059.8,634.9,1059.8,649z M819.2,173.5c16.7,0,32.2,8.9,40.5,23.4l197.2,341.6c1.9,3.6,2.9,7.7,2.9,12.1
				c0,14.1-11.5,25.6-25.6,25.6h-217l-54.8-93.1l-0.4-0.6c-3.5-5.5-8.9-9.5-15.3-11.2l0,0l-0.6-0.1c-13.5-3.2-27.1,5-30.6,18.5l0,0
				l-69.9,270.1l-60-434.8l-0.1-0.6c-1.6-10-9-18.1-18.9-20.7c-13.7-3.5-27.7,4.7-31.2,18.4l0,0l-84.2,325.6L416.6,589l-0.3-0.6
				c-4.7-7.5-12.9-12-21.7-12l0,0H165.9l0,0c-14.1,0-25.6-11.5-25.6-25.6c0-4.3,1-8.4,2.8-12l197.3-341.7
				c8.4-14.5,23.8-23.4,40.5-23.4h438.3V173.5z"/>
		</g>
	</g>
</g>
</svg>
